<svg xmlns="http://www.w3.org/2000/svg" version="1.1" xmlns:xlink="http://www.w3.org/1999/xlink" xmlns:svgjs="http://svgjs.com/svgjs" width="1000" height="1000"><rect width="1000" height="1000" rx="150" ry="150" fill="#1b3393"></rect><g transform="matrix(4,0,0,4,140.15383625030518,123.82609367370605)"><svg xmlns="http://www.w3.org/2000/svg" version="1.1" xmlns:xlink="http://www.w3.org/1999/xlink" xmlns:svgjs="http://svgjs.com/svgjs" width="200" height="192"><svg xmlns="http://www.w3.org/2000/svg" xmlns:xlink="http://www.w3.org/1999/xlink" xml:space="preserve" version="1.1" style="shape-rendering:geometricPrecision; text-rendering:geometricPrecision; image-rendering:optimizeQuality; fill-rule:evenodd; clip-rule:evenodd" viewBox="0 0 230 192" class="mdl-js" width="200">
 <defs>
  <style type="text/css">
   
    .fil1 {fill:#002147}
    .fil0 {fill:#FEFEFE}
   
  </style>
 </defs>
 <g id="Layer_x0020_1">
  <metadata id="CorelCorpID_0Corel-Layer"></metadata>
  <g id="_794831352">
   <path class="fil0" d="M181 131c-13,24 -38,39 -67,39 -18,0 -34,-6 -47,-16l23 -9c7,3 15,5 24,5 20,0 38,-10 48,-26l19 7z"></path>
   <path class="fil0" d="M114 16c29,0 54,15 67,39l-19 7c-10,-16 -28,-26 -48,-26 -29,0 -53,22 -57,50l-20 8c0,0 0,-1 0,-1 0,-43 34,-77 77,-77z"></path>
   <path class="fil0" d="M142 56c0,2 1,3 1,4l2 5c0,1 1,2 2,3l-107 42c-3,1 -5,0 -6,-2l-1 -3c-1,-2 0,-5 2,-6l107 -43z"></path>
   <path class="fil0" d="M138 83c0,1 0,3 0,4l2 4c1,1 1,2 2,3l-107 43c-2,1 -5,0 -6,-3l-1 -2c-1,-3 0,-5 3,-6l107 -43z"></path>
   <path class="fil1" d="M28 122l111 -44 0 2c0,0 -1,1 -1,2l-108 43c-3,1 -4,4 -3,7l1 3c1,3 5,4 7,3l108 -43c1,0 2,1 3,1l0 1 -111 44c-4,2 -8,0 -10,-4l-2 -5c-1,-4 1,-8 5,-10z"></path>
   <path class="fil0" d="M133 110c0,2 0,3 1,4l2 4c0,2 1,3 2,3l-107 43c-3,1 -6,0 -6,-2l-1 -3c-1,-2 0,-5 2,-6l107 -43z"></path>
   <path class="fil1" d="M23 149l111 -43 1 1c-1,1 -1,1 -1,2l-108 43c-3,1 -5,4 -4,7l2 3c1,3 4,4 7,3l108 -43c0,1 1,1 2,1l1 2 -111 44c-4,1 -9,-1 -10,-5l-2 -4c-2,-4 0,-9 4,-11z"></path>
   <path class="fil1" d="M32 96l111 -44 1 1c-1,1 -1,1 -1,2l-108 43c-3,1 -5,4 -3,7l1 3c1,3 4,4 7,3l108 -43c1,1 1,1 2,1l1 2 -111 44c-4,1 -9,-1 -10,-5l-2 -4c-2,-4 0,-9 4,-10z"></path>
  </g>
 </g>
</svg></svg></g></svg>