<svg width="25" height="25" viewBox="0 0 25 25" fill="none" xmlns="http://www.w3.org/2000/svg">
<path d="M12.1992 2.70508C6.68922 2.70508 2.19922 7.19508 2.19922 12.7051C2.19922 18.2151 6.68922 22.7051 12.1992 22.7051C17.7092 22.7051 22.1992 18.2151 22.1992 12.7051C22.1992 7.19508 17.7092 2.70508 12.1992 2.70508ZM16.1992 13.4551H12.9492V16.7051C12.9492 17.1151 12.6092 17.4551 12.1992 17.4551C11.7892 17.4551 11.4492 17.1151 11.4492 16.7051V13.4551H8.19922C7.78922 13.4551 7.44922 13.1151 7.44922 12.7051C7.44922 12.2951 7.78922 11.9551 8.19922 11.9551H11.4492V8.70508C11.4492 8.29508 11.7892 7.95508 12.1992 7.95508C12.6092 7.95508 12.9492 8.29508 12.9492 8.70508V11.9551H16.1992C16.6092 11.9551 16.9492 12.2951 16.9492 12.7051C16.9492 13.1151 16.6092 13.4551 16.1992 13.4551Z" fill="#002147"/>
</svg>
