<svg xmlns="http://www.w3.org/2000/svg" width="32" height="33" viewBox="0 0 32 33" fill="none">
    <path d="M16.0001 3.37175C8.64008 3.37175 2.66675 9.34508 2.66675 16.7051C2.66675 24.0651 8.64008 30.0384 16.0001 30.0384C23.3601 30.0384 29.3334 24.0651 29.3334 16.7051C29.3334 9.34508 23.3601 3.37175 16.0001 3.37175ZM20.6667 17.7051H13.7467L16.0401 19.9984C16.4267 20.3851 16.4267 21.0251 16.0401 21.4117C15.8401 21.6117 15.5867 21.7051 15.3334 21.7051C15.0801 21.7051 14.8267 21.6117 14.6267 21.4117L10.6267 17.4117C10.4408 17.2236 10.3365 16.9697 10.3365 16.7051C10.3365 16.4405 10.4408 16.1866 10.6267 15.9984L14.6267 11.9984C15.0134 11.6117 15.6534 11.6117 16.0401 11.9984C16.4267 12.3851 16.4267 13.0251 16.0401 13.4117L13.7467 15.7051H20.6667C21.2134 15.7051 21.6667 16.1584 21.6667 16.7051C21.6667 17.2517 21.2134 17.7051 20.6667 17.7051Z" fill="#B0B0B0"/>
</svg>
