<svg width="24" height="25" viewBox="0 0 24 25" fill="none" xmlns="http://www.w3.org/2000/svg">
    <path d="M9.65023 2.70508H14.3502C15.3902 2.70508 16.2402 3.54508 16.2402 4.58508V5.52508C16.2402 6.56508 15.4002 7.40508 14.3602 7.40508H9.65023C8.61023 7.40508 7.77024 6.56508 7.77024 5.52508V4.58508C7.76023 3.54508 8.61023 2.70508 9.65023 2.70508Z" fill="#B0B0B0"/>
    <path d="M6.76094 5.52506C6.76094 7.11506 8.06094 8.41506 9.65094 8.41506H14.3509C15.9409 8.41506 17.2409 7.11506 17.2409 5.52506C17.2409 4.96506 17.8409 4.61506 18.3409 4.87506C19.0572 5.25648 19.6561 5.8256 20.0736 6.52143C20.4911 7.21727 20.7114 8.01358 20.7109 8.82506V18.2351C20.7109 20.6951 18.7009 22.7051 16.2409 22.7051H7.76094C5.30094 22.7051 3.29094 20.6951 3.29094 18.2351V8.82506C3.29094 7.11506 4.25094 5.62506 5.66094 4.87506C6.16094 4.61506 6.76094 4.96506 6.76094 5.52506ZM8.47094 18.2351C8.62094 18.3851 8.81094 18.4551 9.00094 18.4551C9.19094 18.4551 9.38094 18.3851 9.53094 18.2351L14.2509 13.5151V14.7051C14.2509 15.1151 14.5909 15.4551 15.0009 15.4551C15.4109 15.4551 15.7509 15.1151 15.7509 14.7051V11.7051C15.7509 11.2951 15.4109 10.9551 15.0009 10.9551H12.0009C11.5909 10.9551 11.2509 11.2951 11.2509 11.7051C11.2509 12.1151 11.5909 12.4551 12.0009 12.4551H13.1909L8.47094 17.1751C8.18094 17.4651 8.18094 17.9451 8.47094 18.2351Z" fill="#05969F"/>
</svg>