<svg width="24" height="23" viewBox="0 0 24 23" fill="none" xmlns="http://www.w3.org/2000/svg">
    <path d="M11.125 10.625V1C11.125 0.7445 11.207 0.534792 11.3709 0.370875C11.5348 0.206958 11.7445 0.125 12 0.125C12.2555 0.125 12.4652 0.206958 12.6291 0.370875C12.793 0.534792 12.875 0.7445 12.875 1V10.625H22.5C22.7555 10.625 22.9652 10.707 23.1291 10.8709C23.293 11.0348 23.375 11.2445 23.375 11.5C23.375 11.7555 23.293 11.9652 23.1291 12.1291C22.9652 12.293 22.7555 12.375 22.5 12.375H12.875V22C12.875 22.2555 12.793 22.4652 12.6291 22.6291C12.4652 22.793 12.2555 22.875 12 22.875C11.7445 22.875 11.5348 22.793 11.3709 22.6291C11.207 22.4652 11.125 22.2555 11.125 22V12.375H1.5C1.2445 12.375 1.03479 12.293 0.870875 12.1291C0.706958 11.9652 0.625 11.7555 0.625 11.5C0.625 11.2445 0.706958 11.0348 0.870875 10.8709C1.03479 10.707 1.2445 10.625 1.5 10.625H11.125Z" fill="#B0B0B0"/>
</svg>
