<svg width="80" height="80" viewBox="0 0 80 80" fill="none" xmlns="http://www.w3.org/2000/svg">
    <g clip-path="url(#clip0_1099_28738)">
        <path d="M53.1733 30.0669L50.0933 72.0002H24.7599L21.6799 30.0669H53.1733Z" fill="#F35B5B"/>
        <path d="M50.0933 73.3334H24.76C24.0666 73.3334 23.48 72.8001 23.4266 72.0934L20.3466 30.1601C20.32 29.7867 20.4533 29.4267 20.7066 29.1601C20.96 28.8934 21.3066 28.7334 21.68 28.7334H53.1733C53.3561 28.7343 53.5368 28.7726 53.7044 28.8458C53.8719 28.919 54.0227 29.0257 54.1475 29.1593C54.2724 29.2928 54.3686 29.4505 54.4304 29.6226C54.4921 29.7947 54.5181 29.9776 54.5066 30.1601L51.4266 72.0934C51.3733 72.8001 50.8 73.3334 50.0933 73.3334ZM26 70.6667H48.8533L51.7333 31.4001H23.12L26 70.6667Z" fill="#222222"/>
        <path d="M37.4267 62.6002C36.6933 62.6002 36.0933 62.0002 36.0933 61.2668V40.6535C36.0933 39.9202 36.6933 39.3202 37.4267 39.3202C38.16 39.3202 38.76 39.9202 38.76 40.6535V61.2668C38.76 62.0135 38.16 62.6002 37.4267 62.6002ZM43.76 62.6002H43.6533C43.4791 62.5872 43.3091 62.54 43.1531 62.4612C42.9971 62.3824 42.8581 62.2737 42.7442 62.1412C42.6302 62.0087 42.5436 61.855 42.4891 61.689C42.4346 61.5229 42.4134 61.3478 42.4267 61.1735L43.96 40.5602C44.0133 39.8268 44.64 39.2668 45.3867 39.3335C46.12 39.3868 46.6667 40.0268 46.6133 40.7602L45.08 61.3735C45.04 62.0668 44.4533 62.6002 43.76 62.6002ZM31.0933 62.6002C30.4 62.6002 29.8133 62.0668 29.76 61.3602L28.2267 40.7468C28.2001 40.395 28.3145 40.047 28.5445 39.7795C28.7746 39.5119 29.1015 39.3467 29.4533 39.3202C29.8052 39.2937 30.1532 39.408 30.4207 39.638C30.6883 39.8681 30.8535 40.195 30.88 40.5468L32.4133 61.1602C32.4266 61.3344 32.4054 61.5096 32.3509 61.6756C32.2964 61.8417 32.2098 61.9953 32.0958 62.1279C31.9819 62.2604 31.8429 62.3691 31.6869 62.4479C31.5309 62.5266 31.3609 62.5738 31.1867 62.5868C31.16 62.6002 31.12 62.6002 31.0933 62.6002Z" fill="#222222"/>
        <path d="M23.1999 9.6001L59.7546 23.9774L56.7972 31.4961L20.2439 17.1188L23.1999 9.6001Z" fill="#F35B5B"/>
        <path d="M56.8001 32.8268C56.6401 32.8268 56.4668 32.8001 56.3068 32.7334L19.7601 18.3601C19.4268 18.2268 19.1734 17.9734 19.0268 17.6534C18.8801 17.3334 18.8801 16.9601 19.0134 16.6267L21.9734 9.10675C22.2401 8.42675 23.0134 8.08008 23.7068 8.36008L60.2534 22.7334C60.9334 23.0001 61.2801 23.7734 61.0001 24.4668L58.0401 31.9868C57.9068 32.3201 57.6534 32.5734 57.3334 32.7201C57.1601 32.7868 56.9734 32.8268 56.8001 32.8268ZM21.9734 16.3601L56.0401 29.7601L58.0268 24.7201L23.9601 11.3201L21.9734 16.3601Z" fill="#222222"/>
        <path d="M49.6667 21.3331C49.5067 21.3331 49.3333 21.3065 49.1733 21.2398L32.8133 14.7998C32.48 14.6665 32.2267 14.4131 32.08 14.0931C31.9333 13.7731 31.9333 13.3998 32.0667 13.0665L33.72 8.86647C33.8851 8.44158 34.1323 8.05341 34.4476 7.72419C34.7629 7.39498 35.14 7.13117 35.5574 6.94788C35.9747 6.76458 36.4242 6.6654 36.8799 6.65601C37.3356 6.64662 37.7888 6.7272 38.2133 6.89314L50.6 11.7598C51.0249 11.9249 51.413 12.1721 51.7423 12.4874C52.0715 12.8027 52.3353 13.1798 52.5186 13.5972C52.7019 14.0146 52.8011 14.464 52.8104 14.9197C52.8198 15.3755 52.7393 15.8286 52.5733 16.2531L50.92 20.4531C50.6933 21.0131 50.2 21.3331 49.6667 21.3331ZM35.0267 12.8131L48.9067 18.2798L50.0667 15.3198C50.1467 15.1198 50.1467 14.8931 50.0533 14.7065C50.0131 14.609 49.9533 14.5208 49.8776 14.4474C49.802 14.374 49.712 14.317 49.6133 14.2798L37.2267 9.41314C37.1292 9.37229 37.0242 9.35237 36.9186 9.35467C36.8129 9.35697 36.7089 9.38143 36.6133 9.42647C36.4133 9.50647 36.2667 9.66647 36.1867 9.86647L35.0267 12.8131Z" fill="#222222"/>
    </g>
    <defs>
        <clipPath id="clip0_1099_28738">
            <rect width="80" height="80" fill="white"/>
        </clipPath>
    </defs>
</svg>
