<svg width="16" height="20" viewBox="0 0 16 20" fill="none" xmlns="http://www.w3.org/2000/svg">
<path d="M15.3399 12.4902L14.3399 10.8302C14.1299 10.4602 13.9399 9.76016 13.9399 9.35016V6.82016C13.9387 5.70419 13.6216 4.61137 13.0252 3.66813C12.4288 2.72489 11.5776 1.96978 10.5699 1.49016C10.3128 1.0335 9.93764 0.654303 9.48379 0.392195C9.02994 0.130087 8.51401 -0.00530784 7.98994 0.000159243C6.89994 0.000159243 5.91994 0.590159 5.39994 1.52016C3.44994 2.49016 2.09994 4.50016 2.09994 6.82016V9.35016C2.09994 9.76016 1.90994 10.4602 1.69994 10.8202L0.689943 12.4902C0.289943 13.1602 0.199943 13.9002 0.449943 14.5802C0.689943 15.2502 1.25994 15.7702 1.99994 16.0202C3.93994 16.6802 5.97994 17.0002 8.01994 17.0002C10.0599 17.0002 12.0999 16.6802 14.0399 16.0302C14.7399 15.8002 15.2799 15.2702 15.5399 14.5802C15.7999 13.8902 15.7299 13.1302 15.3399 12.4902ZM10.8299 18.0102C10.6196 18.5923 10.2352 19.0956 9.7289 19.4516C9.22258 19.8077 8.61891 19.9992 7.99994 20.0002C7.20994 20.0002 6.42994 19.6802 5.87994 19.1102C5.55994 18.8102 5.31994 18.4102 5.17994 18.0002C5.30994 18.0202 5.43994 18.0302 5.57994 18.0502C5.80994 18.0802 6.04994 18.1102 6.28994 18.1302C6.85994 18.1802 7.43994 18.2102 8.01994 18.2102C8.58994 18.2102 9.15994 18.1802 9.71994 18.1302C9.92994 18.1102 10.1399 18.1002 10.3399 18.0702L10.8299 18.0102Z" fill="#B0B0B0"/>
</svg>
