<svg
    xmlns="http://www.w3.org/2000/svg"
    width="22"
    height="16
"
    viewBox="0 0 18 20"
    fill="none"
    >
<path
d="M7.43 16.75C7.8 16.29 8.37 16 9 16C9.63 16 10.19 16.29 10.56 16.75C10.95 16.66 11.32 16.54 11.68 16.39L10.26 13.21C9.87 13.36 9.44 13.44 9 13.44C8.54 13.44 8.1 13.35 7.7 13.19L6.27 16.38C6.65 16.54 7.03 16.67 7.43 16.75ZM2.15 8C1.99 8.59 1.9 9.21 1.9 9.85C1.9 10.6 2.02 11.32 2.23 12C2.86 12.05 3.45 12.4 3.79 12.99C4.12 13.56 4.14 14.22 3.9 14.78C4.17 15.05 4.46 15.31 4.77 15.54L6.29 12.15C5.82 11.57 5.54 10.83 5.54 10.02C5.54 8.13 7.09 6.61 9 6.61C10.91 6.61 12.46 8.14 12.46 10.02C12.46 10.84 12.17 11.59 11.68 12.18L13.18 15.53C13.5 15.29 13.8 15.03 14.08 14.74C13.86 14.19 13.88 13.54 14.2 12.99C14.53 12.42 15.1 12.07 15.72 12C15.94 11.32 16.06 10.59 16.06 9.84C16.06 9.2 15.97 8.57 15.81 7.98C15.17 7.94 14.55 7.59 14.21 6.98C13.85 6.36 13.86 5.62 14.18 5.03C13.27 4.05 12.08 3.32 10.74 2.98C10.39 3.6 9.74 4 9 4C8.26 4 7.61 3.59 7.26 2.99C5.92 3.33 4.73 4.04 3.82 5.02C4.15 5.62 4.17 6.37 3.8 7C3.45 7.62 2.81 7.97 2.15 8ZM0.849998 7.58C0.0699979 6.98 -0.170002 5.88 0.339998 5C0.849998 4.12 1.92 3.77 2.83 4.15C3.94 2.98 5.39 2.12 7.01 1.73C7.15 0.75 7.99 0 9 0C10.01 0 10.85 0.75 10.98 1.73C12.61 2.12 14.05 2.97 15.16 4.15C16.07 3.77 17.15 4.12 17.65 5C18.16 5.88 17.92 6.98 17.14 7.58C17.37 8.35 17.49 9.16 17.49 10C17.49 10.84 17.37 11.65 17.14 12.42C17.92 13.02 18.16 14.12 17.65 15C17.14 15.88 16.07 16.23 15.16 15.85C14.76 16.28 14.31 16.66 13.82 17L15.16 20H13.3L12.33 17.83C11.9 18.01 11.45 18.16 10.99 18.27C10.85 19.25 10.01 20 9 20C7.99 20 7.15 19.25 7.02 18.27C6.54 18.15 6.08 18 5.64 17.81L4.66 20H2.78L4.14 16.97C3.67 16.64 3.23 16.26 2.84 15.85C1.92 16.23 0.849998 15.88 0.339998 15C-0.170002 14.12 0.0699979 13.02 0.849998 12.42C0.619998 11.65 0.499998 10.84 0.499998 10C0.499998 9.16 0.619998 8.35 0.849998 7.58Z"
fill="#8A8A8A"
/>
    </svg>
